<svg width="22" height="19" viewBox="0 0 22 19" fill="none" xmlns="http://www.w3.org/2000/svg">
<path fill-rule="evenodd" clip-rule="evenodd" d="M11.5285 18.6424L19.4932 10.5874C21.7075 8.29787 21.7075 4.75934 19.4932 2.46982C18.4428 1.38747 16.9709 0.77163 15.4288 0.769347C14.0237 0.770906 12.6765 1.28126 11.6526 2.18965C11.5518 2.279 11.4543 2.37219 11.3601 2.46912L11.0015 2.83232L10.643 2.46912C10.5466 2.36962 10.4471 2.27446 10.3448 2.18363C8.23358 0.308422 4.93816 0.284074 2.79525 2.1928C2.6957 2.28151 2.59955 2.37364 2.50701 2.46912C0.292586 4.75889 0.292586 8.29762 2.50701 10.5874L10.4746 18.6424C10.7503 18.9213 11.2097 18.9333 11.5007 18.669C11.5102 18.6604 11.5195 18.6515 11.5285 18.6424ZM3.16709 9.94211L11.0015 17.8624L18.8331 9.94213C20.6976 8.01058 20.6967 5.04277 18.8303 3.11223C17.958 2.21367 16.7272 1.69466 15.4286 1.69242C14.1285 1.69418 12.8959 2.21322 12.0221 3.11243L12.017 3.11763L11.0015 4.14627L9.98012 3.11158C8.23874 1.31487 5.28856 1.20826 3.40936 2.88196M3.16709 9.94211C1.30229 8.0102 1.30333 5.04195 3.1702 3.11119C3.24673 3.03225 3.32659 2.95572 3.40936 2.88196" fill="#444444"/>
</svg>
